<svg viewBox="0 0 1200 600" xmlns="http://www.w3.org/2000/svg"><defs><style>.bg{fill:#f4f0e8}.lbl{font-family:Georgia,serif;font-size:12px;fill:#4a3818}.node{opacity:.8}@media(prefers-color-scheme:dark){.bg{fill:#0a0806}.lbl{fill:#c8b880}}</style></defs><rect width="1200" height="600" class="bg"/><circle cx="600" cy="270" r="28" fill="#2a4060" opacity=".8"/><text x="600" y="266" text-anchor="middle" font-family="Georgia,serif" font-size="10" fill="white">You</text><text x="600" y="280" text-anchor="middle" font-family="Georgia,serif" font-size="8" fill="white" opacity=".8">listen</text><circle cx="300" cy="140" r="20" fill="#c87020" class="node"/><text x="300" y="135" text-anchor="middle" font-family="Georgia,serif" font-size="9" fill="white">Mentor</text><text x="300" y="148" text-anchor="middle" font-family="Georgia,serif" font-size="8" fill="white">ahead of you</text><circle cx="550" cy="100" r="18" fill="#2a5a3a" class="node"/><text x="550" y="95" text-anchor="middle" font-family="Georgia,serif" font-size="9" fill="white">Peer</text><text x="550" y="108" text-anchor="middle" font-family="Georgia,serif" font-size="8" fill="white">alongside</text><circle cx="820" cy="130" r="18" fill="#8a3a60" class="node"/><text x="820" y="125" text-anchor="middle" font-family="Georgia,serif" font-size="9" fill="white">Critic</text><text x="820" y="138" text-anchor="middle" font-family="Georgia,serif" font-size="8" fill="white">challenges you</text><circle cx="960" cy="260" r="20" fill="#3a6080" class="node"/><text x="960" y="255" text-anchor="middle" font-family="Georgia,serif" font-size="9" fill="white">Stranger</text><text x="960" y="268" text-anchor="middle" font-family="Georgia,serif" font-size="8" fill="white">unfiltered view</text><circle cx="900" cy="410" r="18" fill="#4a4020" class="node"/><text x="900" y="405" text-anchor="middle" font-family="Georgia,serif" font-size="9" fill="white">Elder</text><text x="900" y="418" text-anchor="middle" font-family="Georgia,serif" font-size="8" fill="white">time perspective</text><circle cx="600" cy="450" r="18" fill="#6a2a40" class="node"/><text x="600" y="445" text-anchor="middle" font-family="Georgia,serif" font-size="9" fill="white">Young</text><text x="600" y="458" text-anchor="middle" font-family="Georgia,serif" font-size="8" fill="white">unfiltered energy</text><circle cx="270" cy="400" r="20" fill="#2a6a40" class="node"/><text x="270" y="395" text-anchor="middle" font-family="Georgia,serif" font-size="9" fill="white">Operator</text><text x="270" y="408" text-anchor="middle" font-family="Georgia,serif" font-size="8" fill="white">who builds things</text><line x1="320" y1="155" x2="580" y2="248" stroke="#c8b880" stroke-width="1.5" opacity=".4"/><line x1="566" y1="115" x2="594" y2="242" stroke="#c8b880" stroke-width="1.5" opacity=".4"/><line x1="803" y1="143" x2="626" y2="249" stroke="#c8b880" stroke-width="1.5" opacity=".4"/><line x1="942" y1="274" x2="628" y2="270" stroke="#c8b880" stroke-width="1.5" opacity=".4"/><line x1="884" y1="396" x2="626" y2="291" stroke="#c8b880" stroke-width="1.5" opacity=".4"/><line x1="617" y1="432" x2="600" y2="298" stroke="#c8b880" stroke-width="1.5" opacity=".4"/><line x1="286" y1="385" x2="578" y2="290" stroke="#c8b880" stroke-width="1.5" opacity=".4"/><text x="600" y="540" text-anchor="middle" font-family="Georgia,serif" font-size="14" fill="#4a3818" opacity=".5" font-style="italic">"Every person is a library. Most people forget to open the books."</text></svg>