<svg viewBox="0 0 1200 600" xmlns="http://www.w3.org/2000/svg"><defs><style>.bg{fill:#060a18}@media(prefers-color-scheme:dark){.bg{fill:#030608}}</style></defs><rect width="1200" height="600" class="bg"/><circle cx="600" cy="310" r="3" fill="#60b0f0"/><circle cx="600" cy="310" r="60" fill="none" stroke="#60b0f0" stroke-width="2" opacity=".85"/><circle cx="600" cy="310" r="130" fill="none" stroke="#60b0f0" stroke-width="1.5" opacity=".65"/><circle cx="600" cy="310" r="210" fill="none" stroke="#60b0f0" stroke-width="1.2" opacity=".45"/><circle cx="600" cy="310" r="300" fill="none" stroke="#60b0f0" stroke-width="1" opacity=".3"/><circle cx="600" cy="310" r="400" fill="none" stroke="#60b0f0" stroke-width=".7" opacity=".18"/><circle cx="600" cy="310" r="520" fill="none" stroke="#60b0f0" stroke-width=".5" opacity=".1"/><text x="600" y="360" text-anchor="middle" font-family="Georgia,serif" font-size="10" fill="#60b0f0" opacity=".7">tower</text><text x="600" y="420" text-anchor="middle" font-family="Georgia,serif" font-size="12" fill="#4090d0" opacity=".6">village</text><text x="600" y="490" text-anchor="middle" font-family="Georgia,serif" font-size="11" fill="#3070b0" opacity=".5">town</text><circle cx="280" cy="218" r="5" fill="#f0a030" opacity=".8"/><text x="260" y="206" font-family="Georgia,serif" font-size="10" fill="#f0a030">UPI</text><circle cx="920" cy="218" r="5" fill="#f0a030" opacity=".8"/><text x="928" y="206" font-family="Georgia,serif" font-size="10" fill="#f0a030">YouTube</text><circle cx="400" cy="120" r="5" fill="#60d080" opacity=".8"/><text x="380" y="108" font-family="Georgia,serif" font-size="10" fill="#60d080">Kisan app</text><circle cx="800" cy="120" r="5" fill="#60d080" opacity=".8"/><text x="810" y="108" font-family="Georgia,serif" font-size="10" fill="#60d080">WhatsApp</text><circle cx="160" cy="340" r="4" fill="#e060a0" opacity=".7"/><text x="100" y="328" font-family="Georgia,serif" font-size="10" fill="#e060a0">Telemedicine</text><circle cx="1040" cy="340" r="4" fill="#e060a0" opacity=".7"/><text x="1050" y="328" font-family="Georgia,serif" font-size="10" fill="#e060a0">e-learning</text><text x="600" y="80" text-anchor="middle" font-family="Georgia,serif" font-size="15" fill="#c8d8f0" opacity=".55" font-style="italic">"One signal. A billion lives shifted."</text></svg>