<svg viewBox="0 0 1200 600" xmlns="http://www.w3.org/2000/svg"><defs><style>.bg{fill:#0a0c10}@media(prefers-color-scheme:dark){.bg{fill:#060810}}</style></defs><rect width="1200" height="600" class="bg"/><ellipse cx="600" cy="300" rx="300" ry="300" fill="#1a2030" opacity=".5"/><ellipse cx="600" cy="300" rx="180" ry="180" fill="#202838" opacity=".6"/><ellipse cx="600" cy="300" rx="80" ry="80" fill="#2a3448" opacity=".7"/><text x="600" y="290" text-anchor="middle" font-family="Georgia,serif" font-size="20" fill="#e0c860" font-weight="bold">Aadhaar +</text><text x="600" y="318" text-anchor="middle" font-family="Georgia,serif" font-size="20" fill="#e0c860" font-weight="bold">UPI Stack</text><circle cx="600" cy="300" r="85" fill="none" stroke="#e0c860" stroke-width="2" opacity=".5"/><g fill="#c8d8e8" opacity=".5" font-family="Georgia,serif" font-size="12"><text x="600" y="150" text-anchor="middle">Jan Dhan (banking)</text><text x="600" y="460" text-anchor="middle">ONDC (commerce)</text><text x="260" y="220" text-anchor="middle">ABDM (health)</text><text x="940" y="220" text-anchor="middle">DigiLocker (docs)</text><text x="220" y="380" text-anchor="middle">NPCI (payments)</text><text x="980" y="380" text-anchor="middle">e-Nam (agri)</text><text x="350" y="120" text-anchor="middle">GSTN (tax)</text><text x="850" y="120" text-anchor="middle">COWIN (health)</text></g><line x1="600" y1="300" x2="600" y2="172" stroke="#e0c860" stroke-width=".8" opacity=".25"/><line x1="600" y1="300" x2="600" y2="440" stroke="#e0c860" stroke-width=".8" opacity=".25"/><line x1="600" y1="300" x2="288" y2="213" stroke="#e0c860" stroke-width=".8" opacity=".25"/><line x1="600" y1="300" x2="912" y2="213" stroke="#e0c860" stroke-width=".8" opacity=".25"/><line x1="600" y1="300" x2="248" y2="373" stroke="#e0c860" stroke-width=".8" opacity=".25"/><line x1="600" y1="300" x2="952" y2="373" stroke="#e0c860" stroke-width=".8" opacity=".25"/><text x="600" y="560" text-anchor="middle" font-family="Georgia,serif" font-size="14" fill="#8090a0" opacity=".6" font-style="italic">"The infrastructure no one noticed changed everything."</text></svg>