<svg viewBox="0 0 1200 600" xmlns="http://www.w3.org/2000/svg"><defs><style>.bg{fill:#f4f0e8}.lbl{font-family:Georgia,serif;font-size:11px;fill:#4a3818}@media(prefers-color-scheme:dark){.bg{fill:#0a0806}.lbl{fill:#c8b880}}</style></defs><rect width="1200" height="600" class="bg"/><line x1="80" y1="380" x2="1120" y2="380" stroke="#c8b880" stroke-width="1.5" opacity=".4"/><circle cx="160" cy="380" r="8" fill="#8a6040" opacity=".6"/><text x="160" y="405" text-anchor="middle" class="lbl">Rolodex era</text><text x="160" y="420" text-anchor="middle" class="lbl" font-size="9" opacity=".6">1970s</text><circle cx="360" cy="380" r="8" fill="#8a6040" opacity=".65"/><text x="360" y="405" text-anchor="middle" class="lbl">Job boards</text><text x="360" y="420" text-anchor="middle" class="lbl" font-size="9" opacity=".6">2000s</text><circle cx="560" cy="380" r="8" fill="#8a6040" opacity=".7"/><text x="560" y="405" text-anchor="middle" class="lbl">LinkedIn + ATS</text><text x="560" y="420" text-anchor="middle" class="lbl" font-size="9" opacity=".6">2010s</text><circle cx="760" cy="380" r="8" fill="#2a5a8a" opacity=".8"/><text x="760" y="405" text-anchor="middle" class="lbl" fill="#2a5a8a">AI + data</text><text x="760" y="420" text-anchor="middle" class="lbl" font-size="9" opacity=".6" fill="#2a5a8a">2020s</text><circle cx="960" cy="380" r="12" fill="#2a5a3a" opacity=".9"/><text x="960" y="405" text-anchor="middle" class="lbl" fill="#2a5a3a">Operational</text><text x="960" y="420" text-anchor="middle" class="lbl" fill="#2a5a3a">intelligence</text><text x="960" y="435" text-anchor="middle" class="lbl" font-size="9" opacity=".6" fill="#2a5a3a">now →</text><path d="M160,380 Q360,320 560,300 Q660,290 760,280 Q860,270 960,200" fill="none" stroke="#c87020" stroke-width="2.5" stroke-linecap="round" opacity=".5"/><path d="M760,180 Q860,160 960,100" fill="none" stroke="#2a5a3a" stroke-width="3" stroke-linecap="round" opacity=".8"/><circle cx="960" cy="100" r="10" fill="#2a5a3a" opacity=".9"/><text x="960" y="84" text-anchor="middle" class="lbl" fill="#2a5a3a" font-weight="bold">Future</text><line x1="760" y1="375" x2="760" y2="195" stroke="#c8a870" stroke-width="1" stroke-dasharray="4,3" opacity=".4"/><text x="600" y="505" text-anchor="middle" font-family="Georgia,serif" font-size="14" fill="#4a3818" opacity=".5" font-style="italic">"The next decade belongs to operational intelligence, not sourcing speed."</text></svg>