<svg viewBox="0 0 1200 600" xmlns="http://www.w3.org/2000/svg"><defs><style>.bg{fill:#f4f0e8}@media(prefers-color-scheme:dark){.bg{fill:#0a0806}}</style></defs><rect width="1200" height="600" class="bg"/><line x1="80" y1="500" x2="1120" y2="500" stroke="#c8b880" stroke-width="1" opacity=".4"/><line x1="80" y1="500" x2="80" y2="80" stroke="#c8b880" stroke-width="1" opacity=".4"/><path d="M80,400 C300,380 400,300 580,200 C720,120 900,80 1120,60" fill="none" stroke="#2a5a3a" stroke-width="3" stroke-linecap="round" opacity=".8"/><path d="M80,400 C200,398 320,394 480,390 C640,385 800,375 1120,360" fill="none" stroke="#8a2010" stroke-width="3" stroke-linecap="round" stroke-dasharray="10,6" opacity=".7"/><path d="M80,400 C300,380 400,300 580,200 C720,120 900,80 1120,60 L1120,360 C800,375 640,385 480,390 C320,394 200,398 80,400 Z" fill="#c87020" opacity=".05"/><circle cx="80" cy="400" r="6" fill="#c87020" opacity=".7"/><text x="400" y="155" font-family="Georgia,serif" font-size="13" fill="#2a5a3a" opacity=".7">What was possible</text><text x="800" y="340" font-family="Georgia,serif" font-size="13" fill="#8a2010" opacity=".7" font-style="italic">What was reached</text><line x1="1000" y1="100" x2="1000" y2="365" stroke="#c87020" stroke-width="1.5" stroke-dasharray="4,3" opacity=".5"/><text x="1010" y="232" font-family="Georgia,serif" font-size="12" fill="#c87020" opacity=".65">cost of</text><text x="1010" y="250" font-family="Georgia,serif" font-size="12" fill="#c87020" opacity=".65">missed</text><text x="1010" y="268" font-family="Georgia,serif" font-size="12" fill="#c87020" opacity=".65">opportunity</text><text x="80" y="68" font-family="Georgia,serif" font-size="11" fill="#6a5030" opacity=".5">Year 0</text><text x="1100" y="68" font-family="Georgia,serif" font-size="11" fill="#6a5030" opacity=".5">Year 20</text><text x="600" y="548" text-anchor="middle" font-family="Georgia,serif" font-size="14" fill="#4a3818" opacity=".5" font-style="italic">"The cost is not what you lost. It is what you never became."</text></svg>